<?xml version="1.0" standalone="no"?>
<!DOCTYPE svg PUBLIC "-//W3C//DTD SVG 20010904//EN"
 "http://www.w3.org/TR/2001/REC-SVG-20010904/DTD/svg10.dtd">
<svg version="1.0" xmlns="http://www.w3.org/2000/svg"
 width="2048.000000pt" height="797.000000pt" viewBox="0 0 2048.000000 797.000000"
 preserveAspectRatio="xMidYMid meet">

<g transform="translate(0.000000,797.000000) scale(0.100000,-0.100000)"
fill="#000000" stroke="none">
<path d="M2225 6450 c-132 -77 -301 -174 -375 -216 -181 -103 -410 -235 -667
-383 l-213 -123 0 -434 0 -435 23 12 c35 18 515 296 802 464 143 83 356 207
473 275 l212 123 0 428 c0 236 -3 429 -7 428 -5 0 -116 -63 -248 -139z"/>
<path d="M3990 6161 l0 -428 108 -63 c59 -34 170 -98 247 -143 77 -44 241
-139 365 -212 249 -146 732 -426 768 -444 l22 -12 0 434 0 435 -162 94 c-174
101 -502 289 -683 392 -60 34 -233 133 -383 219 -150 86 -275 157 -277 157 -3
0 -5 -193 -5 -429z"/>
<path d="M7080 5485 c-245 -50 -427 -212 -485 -436 -13 -49 -16 -89 -12 -169
8 -164 56 -272 160 -366 79 -70 148 -101 412 -183 144 -45 228 -89 262 -139
52 -78 35 -203 -37 -265 -51 -44 -98 -57 -199 -57 -104 0 -175 23 -307 101
-158 93 -187 85 -293 -83 -39 -61 -71 -116 -71 -122 1 -19 92 -85 180 -130
355 -183 754 -161 984 55 36 34 81 87 100 118 113 186 126 446 30 607 -76 129
-192 201 -474 295 -164 54 -215 76 -268 116 -81 61 -84 179 -6 257 40 40 86
57 169 63 89 7 155 -11 289 -79 82 -41 106 -49 135 -44 47 7 61 23 132 156
l61 115 -36 31 c-81 70 -265 144 -409 163 -102 14 -236 12 -317 -4z"/>
<path d="M8200 4505 l0 -975 225 0 225 0 0 415 0 415 395 0 395 0 2 -412 3
-413 228 -3 227 -2 0 975 0 975 -230 0 -230 0 0 -410 0 -410 -392 2 -393 3 -3
408 -2 407 -225 0 -225 0 0 -975z"/>
<path d="M10771 5263 c-46 -120 -135 -348 -196 -508 -62 -159 -147 -378 -188
-485 -41 -107 -118 -306 -171 -441 -52 -136 -98 -258 -102 -273 l-6 -26 178 0
c99 0 195 5 215 10 72 20 79 36 230 486 304 907 352 1046 359 1033 5 -8 115
-333 245 -724 251 -750 258 -768 326 -792 49 -17 413 -18 406 0 -3 6 -44 113
-92 237 -48 124 -139 358 -202 520 -63 162 -128 329 -143 370 -15 41 -79 208
-142 370 -64 162 -128 328 -143 368 l-27 72 -232 0 -231 0 -84 -217z"/>
<path d="M12788 4783 c-4 -792 -2 -769 -82 -849 -57 -57 -101 -68 -246 -59
-114 6 -115 6 -138 -18 -21 -22 -25 -43 -37 -163 -7 -77 -11 -142 -9 -146 10
-16 161 -32 294 -32 167 0 234 14 344 72 130 68 220 174 273 319 49 135 53
206 53 916 l0 657 -225 0 -224 0 -3 -697z"/>
<path d="M13532 5383 c16 -54 68 -222 115 -373 47 -151 141 -457 210 -680 69
-223 152 -494 186 -603 l61 -197 204 2 204 3 20 65 c11 36 66 216 123 400 57
184 138 450 181 590 42 140 80 258 83 262 6 7 44 -111 226 -717 56 -187 121
-400 144 -472 l42 -133 203 0 203 0 52 173 c55 179 225 729 429 1387 l119 385
-186 3 c-112 2 -201 -1 -223 -8 -65 -19 -79 -47 -146 -296 -102 -382 -211
-803 -234 -906 -12 -54 -23 -96 -25 -94 -2 2 -12 32 -22 67 -10 35 -62 206
-115 379 -270 875 -246 808 -310 839 -34 17 -62 21 -139 21 -177 0 -191 -14
-276 -291 -34 -112 -112 -360 -172 -551 -60 -191 -116 -375 -123 -409 -8 -33
-17 -63 -19 -66 -3 -2 -12 31 -22 74 -15 71 -132 522 -253 979 -26 100 -55
193 -64 206 -34 51 -67 58 -296 58 l-210 0 30 -97z"/>
<path d="M16883 5397 c-103 -268 -271 -704 -408 -1057 -262 -674 -305 -788
-305 -799 0 -14 341 -15 391 -1 76 21 72 13 335 796 134 400 246 730 249 732
6 6 -24 92 249 -726 129 -387 243 -717 253 -734 10 -17 31 -40 46 -52 26 -19
43 -21 233 -24 112 -2 204 -1 204 2 0 3 -18 52 -41 108 -38 95 -208 534 -384
993 -61 160 -281 726 -317 818 l-10 27 -232 0 -231 0 -32 -83z"/>
<path d="M18340 4505 l0 -975 583 2 582 3 3 177 2 178 -362 2 -363 3 -3 793
-2 792 -220 0 -220 0 0 -975z"/>
<path d="M3175 5258 c-27 -17 -129 -76 -225 -131 -96 -55 -239 -138 -318 -185
-127 -75 -141 -86 -125 -97 10 -7 113 -66 228 -133 116 -66 309 -177 430 -247
121 -70 324 -187 450 -260 127 -73 349 -202 495 -286 146 -84 348 -201 450
-260 l185 -106 3 -436 2 -436 -117 -69 c-65 -38 -210 -123 -323 -188 -113 -65
-299 -172 -415 -239 -454 -262 -637 -366 -650 -371 -14 -6 -130 57 -445 241
-96 56 -314 182 -485 280 -170 98 -374 216 -452 263 l-143 84 0 434 c0 239 3
434 8 434 4 0 16 -6 27 -14 11 -7 126 -74 255 -148 129 -75 348 -200 485 -280
651 -376 731 -421 741 -421 10 0 94 47 547 311 109 63 194 118 190 123 -4 4
-98 58 -208 121 -110 63 -319 184 -465 268 -146 84 -348 202 -450 260 -102 59
-304 176 -450 260 -146 84 -357 206 -470 271 l-205 118 -55 -32 c-196 -111
-677 -391 -687 -399 -10 -8 -13 -195 -13 -874 l0 -864 53 -34 c28 -18 133 -79
232 -136 99 -57 232 -133 295 -170 63 -37 250 -145 415 -240 165 -95 383 -221
485 -280 102 -59 320 -185 484 -280 l300 -173 50 28 c28 16 161 92 296 170
135 78 346 201 470 272 124 72 327 189 453 262 125 72 329 190 455 262 125 73
298 173 384 223 l158 91 0 870 0 870 -88 49 c-48 27 -181 104 -297 171 -115
67 -312 181 -437 254 -126 72 -328 189 -450 260 -123 70 -326 188 -453 261
-126 73 -299 172 -383 221 -84 49 -156 89 -160 88 -4 0 -29 -14 -57 -31z"/>
<path d="M8655 3017 c-3 -7 -4 -127 -3 -267 l3 -255 48 -3 47 -3 0 120 0 121
121 0 120 0 -3 38 -3 37 -117 3 -118 3 0 69 0 70 135 0 135 0 0 40 0 40 -180
0 c-137 0 -182 -3 -185 -13z"/>
<path d="M9090 2991 l0 -41 46 0 45 0 -3 38 c-3 36 -4 37 -45 40 l-43 3 0 -40z"/>
<path d="M9980 2936 l0 -95 -46 26 c-56 31 -133 29 -182 -5 -95 -68 -97 -265
-3 -344 54 -46 152 -49 206 -7 l25 20 0 -20 c0 -18 6 -21 40 -21 l40 0 0 270
0 270 -40 0 -40 0 0 -94z m-47 -137 c57 -44 61 -162 7 -219 -38 -41 -87 -41
-132 -1 -32 28 -33 32 -33 106 0 74 1 78 33 106 39 35 87 38 125 8z"/>
<path d="M10323 3017 c3 -7 46 -79 96 -160 l90 -146 3 -108 3 -108 48 -3 47
-3 0 105 0 104 100 162 c55 89 100 164 100 166 0 2 -24 4 -53 4 l-53 0 -65
-115 c-35 -63 -67 -115 -71 -115 -4 0 -38 52 -75 115 l-67 115 -54 0 c-41 0
-53 -3 -49 -13z"/>
<path d="M12145 3017 c-3 -7 -4 -127 -3 -267 l3 -255 115 -3 c63 -2 134 0 156
3 60 9 118 51 151 109 26 47 28 60 28 156 0 89 -3 111 -22 146 -28 53 -83 100
-130 113 -56 16 -292 14 -298 -2z m268 -81 c49 -21 76 -56 88 -119 9 -43 9
-71 0 -114 -19 -96 -72 -133 -191 -133 l-70 0 0 190 0 190 70 0 c39 0 85 -6
103 -14z"/>
<path d="M14630 2760 l0 -271 48 3 47 3 3 103 3 102 102 0 c118 0 158 14 194
69 30 44 31 130 4 181 -34 64 -66 75 -243 78 l-158 4 0 -272z m284 179 c34
-16 50 -65 35 -107 -15 -45 -35 -52 -133 -52 l-86 0 0 85 0 85 80 0 c43 0 90
-5 104 -11z"/>
<path d="M16980 2939 l0 -61 -60 7 c-65 8 -96 -4 -132 -49 -17 -21 -18 -21
-18 12 0 31 -2 32 -40 32 l-40 0 2 -192 3 -193 43 -3 42 -3 0 111 c0 169 28
210 144 210 l54 0 4 -141 c3 -135 4 -142 27 -160 19 -16 37 -19 80 -17 55 3
56 4 56 33 0 27 -4 31 -35 35 l-35 5 -3 122 -3 122 38 3 c35 3 38 6 41 36 3
31 2 32 -37 32 l-41 0 0 60 0 60 -45 0 -45 0 0 -61z"/>
<path d="M9414 2877 c-12 -6 -31 -18 -43 -25 -19 -11 -21 -10 -21 8 0 17 -6
20 -40 20 l-40 0 0 -195 0 -195 40 0 40 0 0 120 c0 165 21 210 97 210 62 0 67
-13 73 -177 l5 -148 40 0 40 0 3 148 c3 169 -7 205 -63 231 -39 19 -102 21
-131 3z"/>
<path d="M10884 2879 c-47 -13 -99 -77 -113 -137 -16 -66 0 -149 37 -194 99
-118 303 -74 343 75 12 47 5 127 -16 166 -18 35 -64 77 -98 90 -34 13 -109 13
-153 0z m139 -79 c78 -61 51 -229 -39 -246 -52 -10 -93 12 -115 60 -10 23 -19
54 -19 69 0 38 26 99 53 119 30 24 88 23 120 -2z"/>
<path d="M11805 2878 c-11 -6 -30 -20 -42 -31 l-23 -20 0 26 c0 25 -3 27 -40
27 l-40 0 0 -195 0 -195 40 0 40 0 0 93 c1 160 26 213 108 224 41 6 42 7 42
44 0 37 -1 39 -32 39 -18 0 -42 -6 -53 -12z"/>
<path d="M12803 2869 c-18 -12 -33 -25 -33 -30 0 -5 -4 -9 -10 -9 -5 0 -10 11
-10 25 0 23 -4 25 -40 25 l-40 0 2 -192 3 -193 43 -3 42 -3 0 111 c0 73 5 122
14 145 16 36 59 65 101 65 23 0 25 4 25 40 0 38 -1 40 -32 40 -18 0 -48 -10
-65 -21z"/>
<path d="M13015 2874 c-72 -38 -108 -100 -109 -189 0 -120 62 -193 171 -202
71 -6 135 23 170 76 31 45 29 51 -13 51 -26 0 -46 -8 -71 -30 -45 -40 -92 -41
-132 -2 -16 15 -32 39 -35 54 l-6 27 142 3 143 3 -2 48 c-2 67 -41 129 -96
156 -51 25 -120 27 -162 5z m131 -72 c23 -18 44 -53 44 -72 0 -7 -31 -10 -97
-8 -92 3 -98 4 -95 23 2 11 16 32 33 48 34 32 83 36 115 9z"/>
<path d="M13426 2880 c-37 -12 -72 -45 -85 -80 -12 -35 -7 -40 35 -40 23 0 41
9 62 30 51 51 142 38 142 -20 0 -25 -5 -30 -37 -39 -21 -5 -60 -12 -88 -16
-94 -13 -135 -50 -135 -121 0 -51 27 -88 77 -105 43 -14 126 -6 159 16 22 14
25 14 44 -5 38 -38 110 -24 110 21 0 22 -5 29 -20 29 -19 0 -20 7 -20 123 0
132 -7 157 -53 191 -31 23 -140 32 -191 16z m154 -234 c0 -48 -8 -65 -41 -81
-36 -19 -79 -19 -107 1 -26 18 -29 56 -6 75 12 10 93 31 147 38 4 1 7 -14 7
-33z"/>
<path d="M13877 2865 c-36 -25 -37 -25 -37 -5 0 17 -6 20 -40 20 l-40 0 0
-195 0 -195 40 0 40 0 0 113 c0 127 11 180 43 202 27 19 67 19 93 1 17 -13 19
-30 22 -165 l4 -151 39 0 39 0 0 118 c0 173 16 212 87 212 61 0 73 -35 73
-207 l0 -123 40 0 40 0 0 165 0 165 -29 32 c-27 31 -34 33 -93 33 -50 0 -70
-5 -96 -23 l-32 -24 -31 26 c-42 36 -110 36 -162 1z"/>
<path d="M15265 2878 c-11 -6 -30 -20 -42 -31 l-23 -20 0 26 c0 25 -3 27 -40
27 l-40 0 0 -195 0 -195 45 0 45 0 0 118 c0 99 3 122 20 150 21 34 54 52 96
52 21 0 24 4 24 40 0 39 -1 40 -32 40 -18 0 -42 -6 -53 -12z"/>
<path d="M15470 2879 c-33 -13 -78 -56 -98 -94 -21 -40 -21 -160 0 -200 64
-121 242 -141 330 -37 86 102 38 299 -80 332 -46 12 -119 12 -152 -1z m132
-70 c24 -13 57 -83 58 -121 0 -15 -7 -46 -16 -68 -36 -89 -147 -92 -188 -6
-30 64 -13 156 35 190 27 18 81 21 111 5z"/>
<path d="M15942 2870 c-39 -24 -42 -24 -42 -5 0 11 -11 15 -40 15 l-40 0 0
-265 0 -265 45 0 45 0 0 90 0 91 31 -23 c42 -32 144 -33 186 -2 73 53 98 203
50 295 -42 80 -160 115 -235 69z m117 -64 c50 -27 73 -112 47 -181 -55 -144
-225 -67 -201 91 13 87 82 127 154 90z"/>
<path d="M16365 2873 c-46 -24 -66 -45 -86 -88 -22 -48 -25 -152 -5 -198 51
-119 223 -144 311 -45 47 51 46 68 -5 68 -27 0 -43 -5 -47 -15 -8 -22 -56 -45
-92 -45 -38 0 -79 35 -90 78 l-10 32 146 0 145 0 -4 54 c-6 71 -42 126 -100
155 -52 25 -121 27 -163 4z m126 -63 c19 -10 49 -59 49 -80 0 -6 -35 -10 -95
-10 -90 0 -95 1 -95 21 0 11 13 34 29 50 31 31 75 38 112 19z"/>
<path d="M9090 2684 l0 -195 43 3 42 3 3 193 2 192 -45 0 -45 0 0 -196z"/>
<path d="M11230 2725 c0 -176 7 -202 64 -229 50 -24 107 -21 150 9 34 23 36
23 36 5 0 -17 7 -20 45 -20 l45 0 0 195 0 195 -45 0 -45 0 0 -130 c0 -73 -5
-140 -11 -153 -18 -41 -78 -59 -119 -37 -29 15 -40 72 -40 203 l0 117 -40 0
-40 0 0 -155z"/>
<path d="M17170 2871 c0 -5 30 -88 67 -183 36 -95 66 -185 66 -200 0 -46 -28
-78 -68 -78 -33 0 -35 -2 -35 -35 l0 -35 54 0 c44 0 60 5 84 25 32 27 42 50
146 335 l64 175 -41 3 c-22 2 -43 0 -47 -5 -4 -4 -26 -65 -50 -135 -24 -71
-46 -128 -49 -128 -4 0 -15 24 -25 53 -10 28 -32 89 -48 135 l-30 82 -44 0
c-24 0 -44 -4 -44 -9z"/>
</g>
</svg>
